<svg width="620" height="500" fill="none" xmlns="http://www.w3.org/2000/svg"><path fill="#F2F2F2" d="M0 0h620v500H0z"/><path stroke="#fff" stroke-width="10" d="M315 0v500M0 245h620"/><path d="M30.35 46.328c5.7 0 9.242-3.924 9.242-10.185v-.028c0-6.248-3.555-10.172-9.242-10.172-5.674 0-9.243 3.91-9.243 10.172v.028c0 6.275 3.555 10.185 9.243 10.185zm0-2.707c-3.747 0-6.125-2.885-6.125-7.478v-.028c0-4.594 2.392-7.465 6.125-7.465 3.746 0 6.11 2.885 6.11 7.465v.028c0 4.552-2.323 7.478-6.11 7.478zm11.812 7.164h2.953V43.58h.069c.847 1.668 2.502 2.707 4.539 2.707 3.609 0 5.974-2.885 5.974-7.465v-.013c0-4.594-2.351-7.465-6.015-7.465-2.051 0-3.637 1.039-4.498 2.748h-.069v-2.475h-2.953v19.168zm6.754-7.04c-2.228 0-3.814-1.942-3.814-4.923v-.013c0-2.994 1.572-4.936 3.814-4.936 2.31 0 3.774 1.873 3.774 4.936v.013c0 3.035-1.45 4.922-3.774 4.922zm15.217 2.542c3.486 0 5.701-2.078 6.166-4.361l.027-.15h-2.803l-.04.109c-.37 1.08-1.532 1.982-3.282 1.982-2.351 0-3.842-1.586-3.896-4.306H70.49v-.998c0-4.32-2.474-7.22-6.508-7.22-4.033 0-6.63 3.009-6.63 7.507v.013c0 4.54 2.556 7.424 6.78 7.424zm-.137-12.523c1.928 0 3.322 1.216 3.568 3.705h-7.218c.26-2.407 1.736-3.705 3.65-3.705zM72.787 46h2.953v-8.38c0-2.243 1.34-3.747 3.418-3.747 2.051 0 3.063 1.217 3.063 3.377V46h2.966v-9.31c0-3.31-1.818-5.346-4.976-5.346-2.174 0-3.65.984-4.402 2.447h-.069v-2.174h-2.953V46zm29.736.328c4.362 0 7.629-2.639 8.245-6.562l.013-.137h-3.035l-.041.123c-.738 2.502-2.557 3.87-5.182 3.87-3.65 0-6.015-2.927-6.015-7.493v-.014c0-4.566 2.351-7.465 6.015-7.465 2.653 0 4.485 1.409 5.141 3.72l.082.273h3.035l-.027-.123c-.615-3.897-3.883-6.577-8.231-6.577-5.591 0-9.146 3.91-9.146 10.172v.014c0 6.262 3.555 10.2 9.146 10.2zm16.858-.04c4.115 0 6.822-2.845 6.822-7.48v-.027c0-4.607-2.734-7.437-6.836-7.437-4.088 0-6.808 2.843-6.808 7.437v.028c0 4.62 2.693 7.478 6.822 7.478zm.014-2.475c-2.311 0-3.815-1.819-3.815-5.004v-.028c0-3.144 1.518-4.963 3.787-4.963 2.311 0 3.815 1.819 3.815 4.963v.028c0 3.172-1.477 5.004-3.787 5.004zM128.486 46h2.953v-8.887c0-1.86 1.245-3.24 2.995-3.24 1.668 0 2.72 1.067 2.72 2.734V46h2.899v-8.996c0-1.819 1.217-3.131 2.967-3.131s2.748 1.08 2.748 2.953V46h2.966v-9.885c0-2.885-1.859-4.771-4.703-4.771-2.051 0-3.746 1.08-4.484 2.83h-.068c-.575-1.805-2.024-2.83-4.006-2.83-1.887 0-3.35.998-3.965 2.502h-.069v-2.229h-2.953V46zm23.106 0h2.953v-8.887c0-1.86 1.244-3.24 2.994-3.24 1.668 0 2.721 1.067 2.721 2.734V46h2.898v-8.996c0-1.819 1.217-3.131 2.967-3.131s2.748 1.08 2.748 2.953V46h2.967v-9.885c0-2.885-1.86-4.771-4.703-4.771-2.051 0-3.746 1.08-4.485 2.83h-.068c-.574-1.805-2.023-2.83-4.006-2.83-1.887 0-3.349.998-3.965 2.502h-.068v-2.229h-2.953V46zm28 .287c2.187 0 3.65-.998 4.402-2.447h.068V46h2.967V31.617h-2.967v8.395c0 2.242-1.339 3.732-3.417 3.732-2.051 0-3.063-1.203-3.063-3.377v-8.75h-2.953v9.324c0 3.309 1.805 5.346 4.963 5.346zM189.955 46h2.953v-8.38c0-2.243 1.34-3.747 3.418-3.747 2.051 0 3.063 1.217 3.063 3.377V46h2.966v-9.31c0-3.31-1.818-5.346-4.976-5.346-2.174 0-3.65.984-4.402 2.447h-.069v-2.174h-2.953V46zm16.857-16.598a1.701 1.701 0 100-3.404c-.957 0-1.722.766-1.722 1.709 0 .93.765 1.695 1.722 1.695zM205.336 46h2.953V31.617h-2.953V46zm11.047.287c.601 0 1.162-.068 1.504-.123v-2.283a6.197 6.197 0 01-.793.054c-1.244 0-1.901-.437-1.901-1.9V33.97h2.694v-2.352h-2.694v-3.746h-3.021v3.746h-2.065v2.352h2.065v8.244c0 2.871 1.367 4.074 4.211 4.074zm5.646 4.512c2.817 0 4.321-1.149 5.387-4.13l5.359-15.052h-3.117l-3.623 11.703h-.096l-3.623-11.703h-3.199l5.237 14.397-.247.683c-.492 1.395-1.257 1.764-2.652 1.764-.396 0-.738-.055-.971-.11v2.311c.356.069.971.137 1.545.137zM29.967 84.314c4.101 0 7.11-2.488 7.848-6.207l.027-.136h-1.873l-.041.123c-.82 2.803-2.899 4.484-5.961 4.484-4.238 0-7-3.336-7-8.45v-.013c0-5.127 2.734-8.422 7-8.422 3.076 0 5.168 1.696 5.92 4.362l.082.246h1.873l-.027-.137c-.739-3.691-3.76-6.207-7.848-6.207-5.442 0-8.914 3.965-8.914 10.158v.014c0 6.18 3.5 10.185 8.914 10.185zm16.119-.054c3.87 0 6.48-2.844 6.48-7.37v-.027c0-4.525-2.625-7.341-6.48-7.341-3.87 0-6.48 2.83-6.48 7.341v.028c0 4.511 2.597 7.355 6.48 7.369zm.014-1.614c-2.803-.013-4.635-2.146-4.635-5.755v-.028c0-3.582 1.845-5.728 4.62-5.728 2.776 0 4.636 2.133 4.636 5.728v.028c0 3.595-1.846 5.755-4.621 5.755zm8.873-5.769h8.818v-1.695h-8.818v1.695zM67.045 84h1.805V64.272h-1.805V84zm10.8.26c3.077 0 5.346-1.764 5.839-4.198l.027-.136H81.92l-.027.123c-.465 1.545-1.915 2.597-4.006 2.597-2.803 0-4.621-1.927-4.676-5.318h10.678v-.71c0-4.253-2.393-7.096-6.194-7.096-3.8 0-6.316 2.939-6.316 7.396v.014c0 4.498 2.474 7.328 6.467 7.328zm-.163-13.125c2.433 0 4.183 1.654 4.388 4.758h-8.832c.219-3.022 2.024-4.758 4.444-4.758zM90.519 84.26c2.106 0 3.979-1.162 4.758-2.858h.055V84h1.805v-9.734c0-2.913-2.037-4.745-5.291-4.745-3.213 0-5.237 1.75-5.51 4.198l-.014.164h1.75l.028-.137c.3-1.613 1.654-2.611 3.718-2.611 2.215 0 3.514 1.244 3.514 3.295v1.23l-4.43.274c-3.267.218-5.1 1.681-5.1 4.101v.028c0 2.515 1.915 4.197 4.717 4.197zm-2.87-4.198v-.027c0-1.558 1.244-2.53 3.472-2.666l4.211-.287v1.572c0 2.27-1.955 4.02-4.443 4.02-1.928 0-3.24-1.053-3.24-2.612zm17.828 4.198c2.242 0 4.019-1.258 4.839-3.213h.055V84h1.818V64.272h-1.818v8.476h-.041c-.807-1.969-2.639-3.227-4.867-3.227-3.555 0-6.002 2.913-6.002 7.356v.014c0 4.443 2.434 7.369 6.016 7.369zm.341-1.614c-2.734 0-4.498-2.242-4.498-5.755v-.014c0-3.486 1.764-5.742 4.498-5.742 2.653 0 4.567 2.324 4.567 5.742v.014c0 3.431-1.887 5.755-4.567 5.755zM121.91 84h1.805V71.299h3.049V69.78h-3.063V67.8c0-1.572.752-2.27 2.133-2.27.369 0 .725.028 1.025.082v-1.49a8.314 8.314 0 00-1.326-.11c-2.379 0-3.623 1.19-3.623 3.76v2.01h-1.982V71.3h1.982V84zm11.703.26c3.869 0 6.481-2.844 6.481-7.37v-.027c0-4.525-2.625-7.341-6.481-7.341-3.869 0-6.48 2.83-6.48 7.341v.028c0 4.511 2.597 7.355 6.48 7.369zm.014-1.614c-2.803-.013-4.635-2.146-4.635-5.755v-.028c0-3.582 1.846-5.728 4.621-5.728 2.776 0 4.635 2.133 4.635 5.728v.028c0 3.595-1.846 5.755-4.621 5.755zM142.5 84h1.805v-8.887c0-2.283 1.285-3.855 3.308-3.855.616 0 1.121.096 1.354.191v-1.763a3.984 3.984 0 00-1.121-.165c-1.764 0-3.076 1.04-3.582 2.735h-.055V69.78H142.5V84zm14.451 0h1.86v-7.438h4.853c3.76 0 6.33-2.488 6.33-6.152v-.027c0-3.664-2.57-6.111-6.33-6.111h-6.713V84zm6.276-18.06c3.035 0 4.867 1.681 4.867 4.457v.027c0 2.789-1.832 4.47-4.867 4.47h-4.416V65.94h4.416zM172.551 84h1.804v-8.887c0-2.283 1.286-3.855 3.309-3.855.615 0 1.121.096 1.354.191v-1.763a3.986 3.986 0 00-1.122-.165c-1.763 0-3.076 1.04-3.582 2.735h-.054V69.78h-1.709V84zm9.474-16.79c.657 0 1.19-.532 1.19-1.202 0-.67-.533-1.19-1.19-1.19-.67 0-1.203.52-1.203 1.19 0 .67.533 1.203 1.203 1.203zM181.109 84h1.819V69.781h-1.819V84zm10.391.26c2.242 0 4.02-1.258 4.84-3.213h.055V84h1.818V64.272h-1.818v8.476h-.041c-.807-1.969-2.639-3.227-4.868-3.227-3.554 0-6.002 2.913-6.002 7.356v.014c0 4.443 2.434 7.369 6.016 7.369zm.342-1.614c-2.735 0-4.498-2.242-4.498-5.755v-.014c0-3.486 1.763-5.742 4.498-5.742 2.652 0 4.566 2.324 4.566 5.742v.014c0 3.431-1.887 5.755-4.566 5.755zm15.367 1.614c3.076 0 5.346-1.764 5.838-4.198l.027-.136h-1.791l-.027.123c-.465 1.545-1.914 2.597-4.006 2.597-2.803 0-4.621-1.927-4.676-5.318h10.678v-.71c0-4.253-2.393-7.096-6.193-7.096-3.801 0-6.317 2.939-6.317 7.396v.014c0 4.498 2.475 7.328 6.467 7.328zm-.164-13.125c2.434 0 4.184 1.654 4.389 4.758h-8.832c.218-3.022 2.023-4.758 4.443-4.758zM21.668 116h12.879v-1.668H24.266v-.068l5.277-5.496c3.5-3.61 4.484-5.223 4.484-7.342v-.028c0-3.062-2.556-5.441-6.07-5.441-3.555 0-6.33 2.434-6.385 5.729v.123h1.805l.014-.11c.054-2.31 1.968-4.101 4.607-4.101 2.406 0 4.156 1.654 4.17 3.882v.028c0 1.722-.697 2.912-3.527 5.851l-6.973 7.329V116zm22.45.314c4.456 0 7.136-3.91 7.136-10.158v-.041c0-6.234-2.68-10.158-7.137-10.158-4.457 0-7.123 3.91-7.123 10.158v.041c0 6.235 2.666 10.158 7.123 10.158zm0-1.64c-3.31 0-5.25-3.281-5.25-8.518v-.041c0-5.236 1.94-8.504 5.25-8.504 3.308 0 5.263 3.254 5.263 8.504v.041c0 5.223-1.955 8.518-5.264 8.518zM53.96 116H66.84v-1.668H56.559v-.068l5.277-5.496c3.5-3.61 4.484-5.223 4.484-7.342v-.028c0-3.062-2.556-5.441-6.07-5.441-3.555 0-6.33 2.434-6.385 5.729v.123h1.805l.014-.11c.054-2.31 1.968-4.101 4.607-4.101 2.406 0 4.156 1.654 4.17 3.882v.028c0 1.722-.697 2.912-3.527 5.851l-6.973 7.329V116zm22.45.314c4.456 0 7.136-3.91 7.136-10.158v-.041c0-6.234-2.68-10.158-7.137-10.158-4.457 0-7.123 3.91-7.123 10.158v.041c0 6.235 2.666 10.158 7.123 10.158zm0-1.64c-3.31 0-5.25-3.281-5.25-8.518v-.041c0-5.236 1.94-8.504 5.25-8.504 3.308 0 5.263 3.254 5.263 8.504v.041c0 5.223-1.955 8.518-5.264 8.518zm21.423 1.586c3.104 0 5.387-1.955 5.811-4.608l.013-.109h-1.791l-.027.109c-.424 1.778-1.887 2.994-4.006 2.994-2.762 0-4.607-2.16-4.607-5.742v-.013c0-3.528 1.818-5.756 4.593-5.756 2.215 0 3.623 1.326 4.02 2.994l.027.109h1.778l-.014-.123c-.356-2.447-2.502-4.594-5.81-4.594-3.897 0-6.454 2.872-6.454 7.342v.014c0 4.525 2.516 7.383 6.467 7.383zm13.85 0c3.869 0 6.48-2.844 6.48-7.369v-.028c0-4.525-2.625-7.342-6.48-7.342-3.87 0-6.481 2.831-6.481 7.342v.028c0 4.511 2.598 7.355 6.481 7.369zm.013-1.614c-2.802-.013-4.635-2.146-4.635-5.755v-.028c0-3.582 1.846-5.728 4.622-5.728 2.775 0 4.634 2.133 4.634 5.728v.028c0 3.595-1.845 5.755-4.621 5.755zM120.57 116h1.805v-8.736c0-2.434 1.504-4.116 3.596-4.116 1.941 0 3.254 1.34 3.254 3.377V116h1.818v-8.955c0-2.283 1.449-3.897 3.555-3.897 2.064 0 3.295 1.327 3.295 3.541V116h1.804v-9.721c0-2.884-1.818-4.744-4.607-4.744-2.16 0-3.787 1.244-4.471 3.008h-.041c-.533-1.805-2.037-3.008-4.115-3.008-1.996 0-3.445 1.121-4.033 2.694h-.055v-2.448h-1.805V116zm22.176 0h1.805v-8.736c0-2.434 1.504-4.116 3.595-4.116 1.942 0 3.254 1.34 3.254 3.377V116h1.819v-8.955c0-2.283 1.449-3.897 3.554-3.897 2.065 0 3.295 1.327 3.295 3.541V116h1.805v-9.721c0-2.884-1.818-4.744-4.607-4.744-2.161 0-3.787 1.244-4.471 3.008h-.041c-.533-1.805-2.037-3.008-4.115-3.008-1.996 0-3.446 1.121-4.034 2.694h-.054v-2.448h-1.805V116zm23.229-16.79c.656 0 1.189-.532 1.189-1.202 0-.67-.533-1.19-1.189-1.19-.67 0-1.204.52-1.204 1.19 0 .67.534 1.203 1.204 1.203zm-.916 16.79h1.818v-14.219h-1.818V116zm9.324.26c.437 0 .902-.055 1.189-.11v-1.476c-.205.027-.492.068-.82.068-1.326 0-1.996-.533-1.996-2.105v-9.338h2.816v-1.518h-2.816v-3.842h-1.86v3.842h-2.091v1.518h2.091v9.365c0 2.488 1.149 3.596 3.487 3.596zm7.957 0c.437 0 .902-.055 1.189-.11v-1.476c-.205.027-.492.068-.82.068-1.326 0-1.996-.533-1.996-2.105v-9.338h2.816v-1.518h-2.816v-3.842h-1.859v3.842h-2.092v1.518h2.092v9.365c0 2.488 1.148 3.596 3.486 3.596zm8.982 0c3.076 0 5.346-1.764 5.838-4.198l.028-.136h-1.792l-.027.123c-.465 1.545-1.914 2.597-4.006 2.597-2.802 0-4.621-1.927-4.675-5.318h10.677v-.711c0-4.252-2.392-7.096-6.193-7.096-3.801 0-6.317 2.94-6.317 7.397v.014c0 4.498 2.475 7.328 6.467 7.328zm-.164-13.125c2.434 0 4.184 1.654 4.389 4.758h-8.832c.219-3.022 2.023-4.758 4.443-4.758zm14.383 13.125c3.076 0 5.346-1.764 5.838-4.198l.027-.136h-1.791l-.027.123c-.465 1.545-1.914 2.597-4.006 2.597-2.803 0-4.621-1.927-4.676-5.318h10.678v-.711c0-4.252-2.393-7.096-6.193-7.096-3.801 0-6.317 2.94-6.317 7.397v.014c0 4.498 2.475 7.328 6.467 7.328zm-.164-13.125c2.434 0 4.184 1.654 4.389 4.758h-8.832c.218-3.022 2.023-4.758 4.443-4.758z" fill="#000"/><circle cx="309.5" cy="250.5" r="123.5" fill="#fff" stroke="#96151D" stroke-width="4"/><path d="M286.297 170h2.625v-6.492h3.609l3.446 6.492H299l-3.785-6.891c2.027-.691 3.281-2.519 3.281-4.816v-.023c0-3.176-2.18-5.18-5.637-5.18h-6.562V170zm2.625-8.648v-6.059h3.609c2.016 0 3.258 1.125 3.258 3v.023c0 1.922-1.16 3.036-3.187 3.036h-3.68zM301.039 170h2.391v-12.48h.082l5.097 12.48h1.946l5.097-12.48h.082V170h2.391v-16.91h-3.023l-5.485 13.5h-.07l-5.473-13.5h-3.035V170zm25.969.281c4.008 0 6.445-1.957 6.445-5.039v-.012c0-2.613-1.5-4.031-4.992-4.769l-1.852-.387c-2.109-.457-3.07-1.23-3.07-2.496v-.012c0-1.476 1.336-2.472 3.434-2.484 2.004 0 3.363.949 3.597 2.52l.012.164h2.555l-.012-.2c-.176-2.836-2.59-4.757-6.117-4.757-3.574 0-6.117 1.98-6.129 4.863v.012c0 2.507 1.605 4.031 4.922 4.734l1.84.387c2.238.492 3.164 1.23 3.164 2.59v.011c0 1.582-1.43 2.602-3.692 2.602-2.261 0-3.82-.973-4.054-2.531l-.024-.153h-2.555l.012.176c.211 2.977 2.719 4.781 6.516 4.781zM255.207 199h5.965c5.039 0 8.004-3.141 8.004-8.484v-.024c0-5.32-2.988-8.402-8.004-8.402h-5.965V199zm2.625-2.273v-12.375h3.094c3.562 0 5.566 2.191 5.566 6.164v.023c0 3.996-1.98 6.188-5.566 6.188h-3.094zm14.918-11.954a1.458 1.458 0 100-2.918c-.82 0-1.477.657-1.477 1.465 0 .797.657 1.453 1.477 1.453zM271.484 199h2.532v-12.328h-2.532V199zm8.532 0h2.718l4.418-12.328h-2.636l-3.094 9.855h-.059l-3.093-9.855h-2.696L280.016 199zm13.382.246c2.989 0 4.887-1.781 5.286-3.738l.023-.129h-2.402l-.035.094c-.317.925-1.313 1.699-2.813 1.699-2.016 0-3.293-1.36-3.34-3.692h8.731v-.855c0-3.703-2.121-6.187-5.578-6.187-3.458 0-5.684 2.578-5.684 6.433v.012c0 3.89 2.191 6.363 5.812 6.363zm-.117-10.734c1.653 0 2.848 1.043 3.059 3.176h-6.188c.223-2.063 1.489-3.176 3.129-3.176zM300.816 199h2.532v-7.418c0-1.746 1.007-2.836 2.636-2.836.493 0 .938.059 1.137.141v-2.356c-.199-.035-.516-.093-.879-.093-1.453 0-2.554.867-2.93 2.273h-.058v-2.039h-2.438V199zm12.493.246c2.906 0 5.015-1.547 5.015-3.797v-.011c0-1.77-.961-2.766-3.48-3.352l-2.004-.457c-1.324-.317-1.828-.832-1.828-1.594v-.012c0-.984.855-1.628 2.215-1.628 1.429 0 2.273.75 2.425 1.828l.012.082h2.379l-.012-.141c-.129-2.098-1.886-3.726-4.804-3.726-2.836 0-4.758 1.511-4.758 3.714v.012c0 1.793 1.16 2.918 3.504 3.457l2.015.457c1.324.317 1.77.774 1.77 1.57v.012c0 .996-.914 1.629-2.438 1.629-1.558 0-2.402-.668-2.636-1.805l-.024-.117h-2.508l.012.106c.258 2.25 2.063 3.773 5.145 3.773zm8.355-14.473a1.458 1.458 0 100-2.918c-.82 0-1.476.657-1.476 1.465 0 .797.656 1.453 1.476 1.453zM320.398 199h2.532v-12.328h-2.532V199zm9.469.246c.516 0 .996-.058 1.289-.105v-1.957c-.187.023-.41.046-.679.046-1.067 0-1.629-.375-1.629-1.628v-6.914h2.308v-2.016h-2.308v-3.211h-2.59v3.211h-1.77v2.016h1.77v7.066c0 2.461 1.172 3.492 3.609 3.492zm4.84 3.867c2.414 0 3.703-.984 4.617-3.539l4.594-12.902h-2.672l-3.105 10.031h-.082l-3.106-10.031h-2.742l4.488 12.34-.211.586c-.422 1.195-1.078 1.511-2.273 1.511-.34 0-.633-.047-.832-.093v1.98a7.76 7.76 0 001.324.117zm20.965-3.82c2.191 0 4.019-.656 5.39-1.852L362.48 199h3.082l-3.07-3.246c.938-1.5 1.442-3.422 1.442-5.719v-.574h-2.274v.516c0 1.617-.246 2.976-.75 4.089L357.078 190c2.578-1.406 3.563-2.695 3.563-4.359v-.012c0-2.227-1.852-3.797-4.418-3.797-2.567 0-4.465 1.629-4.465 3.82v.012c.012 1.184.597 2.215 2.074 3.879l-.621.328c-2.227 1.195-3.293 2.695-3.293 4.652v.012c0 2.824 2.32 4.758 5.754 4.758zm-1.582-13.512v-.011c0-1.208.902-2.063 2.133-2.063 1.265 0 2.132.832 2.132 2.039v.012c0 1.101-.679 1.91-2.531 2.894-1.207-1.3-1.734-2.004-1.734-2.871zm-1.688 8.555v-.012c0-1.183.633-2.121 2.274-3.058l.48-.27 4.489 4.887c-.938.879-2.192 1.383-3.727 1.383-2.098 0-3.516-1.172-3.516-2.93zM264.781 228h2.625v-16.91h-2.625V228zm5.438 0h2.531v-7.184c0-1.921 1.148-3.211 2.93-3.211 1.758 0 2.625 1.043 2.625 2.895v7.5h2.543v-7.98c0-2.836-1.559-4.582-4.266-4.582-1.863 0-3.129.843-3.773 2.097h-.059v-1.863h-2.531V228zm18.375.246c2.965 0 5.027-1.898 5.297-4.371l.011-.082h-2.437l-.012.094c-.305 1.336-1.301 2.238-2.859 2.238-1.957 0-3.258-1.582-3.258-4.277v-.012c0-2.637 1.277-4.277 3.246-4.277 1.652 0 2.59 1.019 2.859 2.226l.024.094h2.414l-.012-.082c-.211-2.32-2.133-4.359-5.308-4.359-3.516 0-5.813 2.472-5.813 6.374v.012c0 3.949 2.25 6.422 5.848 6.422zm7.195-.246h2.531v-16.91h-2.531V228zm9.328.246c1.875 0 3.129-.855 3.774-2.098h.058V228h2.543v-12.328h-2.543v7.195c0 1.922-1.148 3.199-2.929 3.199-1.758 0-2.625-1.031-2.625-2.894v-7.5h-2.532v7.992c0 2.836 1.547 4.582 4.254 4.582zm13.5 0c2.906 0 5.016-1.547 5.016-3.797v-.011c0-1.77-.961-2.766-3.481-3.352l-2.004-.457c-1.324-.317-1.828-.832-1.828-1.594v-.012c0-.984.856-1.628 2.215-1.628 1.43 0 2.274.75 2.426 1.828l.012.082h2.379l-.012-.141c-.129-2.098-1.887-3.726-4.805-3.726-2.836 0-4.758 1.511-4.758 3.714v.012c0 1.793 1.161 2.918 3.504 3.457l2.016.457c1.324.317 1.769.774 1.769 1.57v.012c0 .996-.914 1.629-2.437 1.629-1.559 0-2.402-.668-2.637-1.805l-.023-.117h-2.508l.012.106c.257 2.25 2.062 3.773 5.144 3.773zm8.356-14.473c.832 0 1.476-.656 1.476-1.453a1.46 1.46 0 00-1.476-1.465c-.821 0-1.477.657-1.477 1.465 0 .797.656 1.453 1.477 1.453zM325.707 228h2.531v-12.328h-2.531V228zm10.441.246c3.528 0 5.848-2.437 5.848-6.41v-.024c0-3.949-2.344-6.374-5.859-6.374-3.504 0-5.836 2.437-5.836 6.374v.024c0 3.961 2.308 6.41 5.847 6.41zm.012-2.121c-1.98 0-3.269-1.559-3.269-4.289v-.024c0-2.695 1.3-4.253 3.246-4.253 1.98 0 3.269 1.558 3.269 4.253v.024c0 2.719-1.265 4.289-3.246 4.289zm7.793 1.875h2.531v-7.184c0-1.921 1.149-3.211 2.93-3.211 1.758 0 2.625 1.043 2.625 2.895v7.5h2.543v-7.98c0-2.836-1.559-4.582-4.266-4.582-1.863 0-3.128.843-3.773 2.097h-.059v-1.863h-2.531V228zm-115.16 34.27c3.516 0 6.094-2.133 6.727-5.321l.023-.117h-1.605l-.036.106c-.703 2.402-2.484 3.843-5.109 3.843-3.633 0-6-2.859-6-7.242v-.012c0-4.394 2.344-7.218 6-7.218 2.637 0 4.43 1.453 5.074 3.738l.071.211h1.605l-.023-.117c-.633-3.164-3.223-5.321-6.727-5.321-4.664 0-7.641 3.399-7.641 8.707v.012c0 5.297 3 8.731 7.641 8.731zm13.816-.047c3.317 0 5.555-2.438 5.555-6.317v-.023c0-3.879-2.25-6.293-5.555-6.293-3.316 0-5.554 2.426-5.554 6.293v.023c0 3.867 2.226 6.305 5.554 6.317zm.012-1.383c-2.402-.012-3.973-1.84-3.973-4.934v-.023c0-3.071 1.582-4.91 3.961-4.91 2.379 0 3.973 1.828 3.973 4.91v.023c0 3.082-1.582 4.934-3.961 4.934zm7.606-4.945h7.558v-1.454h-7.558v1.454zm14.789 6.328c1.922 0 3.445-1.078 4.148-2.754h.047V262h1.559v-16.91h-1.559v7.265h-.035c-.692-1.687-2.262-2.765-4.172-2.765-3.047 0-5.145 2.496-5.145 6.305v.011c0 3.809 2.086 6.317 5.157 6.317zm.293-1.383c-2.344 0-3.856-1.922-3.856-4.934v-.011c0-2.989 1.512-4.922 3.856-4.922 2.273 0 3.914 1.992 3.914 4.922v.011c0 2.942-1.618 4.934-3.914 4.934zm13.171 1.383c2.637 0 4.582-1.512 5.004-3.598l.024-.117h-1.535l-.024.105c-.398 1.325-1.64 2.227-3.433 2.227-2.403 0-3.961-1.652-4.008-4.559h9.152v-.609c0-3.645-2.051-6.082-5.308-6.082-3.258 0-5.414 2.519-5.414 6.34v.011c0 3.856 2.121 6.282 5.542 6.282zm-.14-11.25c2.086 0 3.586 1.418 3.762 4.078h-7.571c.188-2.59 1.735-4.078 3.809-4.078zM288.723 262h1.652l4.523-12.188h-1.617l-3.715 10.559h-.035l-3.703-10.559h-1.64L288.723 262zm12.257.223c2.637 0 4.582-1.512 5.004-3.598l.024-.117h-1.535l-.024.105c-.398 1.325-1.64 2.227-3.433 2.227-2.403 0-3.961-1.652-4.008-4.559h9.152v-.609c0-3.645-2.051-6.082-5.308-6.082-3.258 0-5.414 2.519-5.414 6.34v.011c0 3.856 2.121 6.282 5.542 6.282zm-.14-11.25c2.086 0 3.586 1.418 3.762 4.078h-7.571c.188-2.59 1.735-4.078 3.809-4.078zm7.5 11.027h1.547v-16.91h-1.547V262zm9.269.223c3.317 0 5.555-2.438 5.555-6.317v-.023c0-3.879-2.25-6.293-5.555-6.293-3.316 0-5.554 2.426-5.554 6.293v.023c0 3.867 2.226 6.305 5.554 6.317zm.012-1.383c-2.402-.012-3.973-1.84-3.973-4.934v-.023c0-3.071 1.582-4.91 3.961-4.91 2.379 0 3.973 1.828 3.973 4.91v.023c0 3.082-1.582 4.934-3.961 4.934zm7.606 5.262h1.546v-6.645h.047c.668 1.629 2.215 2.766 4.16 2.766 3.059 0 5.145-2.485 5.145-6.305v-.012c0-3.808-2.074-6.316-5.168-6.316-1.957 0-3.457 1.148-4.137 2.801h-.047v-2.579h-1.546v16.29zm5.461-5.262c-2.286 0-3.915-1.981-3.915-4.922v-.012c0-2.953 1.618-4.933 3.915-4.933 2.343 0 3.855 1.922 3.855 4.933v.012c0 2.988-1.512 4.922-3.855 4.922zm12.457 1.383c2.636 0 4.582-1.512 5.003-3.598l.024-.117h-1.535l-.024.105c-.398 1.325-1.64 2.227-3.433 2.227-2.403 0-3.961-1.652-4.008-4.559h9.152v-.609c0-3.645-2.051-6.082-5.308-6.082-3.258 0-5.414 2.519-5.414 6.34v.011c0 3.856 2.121 6.282 5.543 6.282zm-.141-11.25c2.086 0 3.586 1.418 3.762 4.078h-7.571c.188-2.59 1.735-4.078 3.809-4.078zm11.941 11.25c1.922 0 3.446-1.078 4.149-2.754h.047V262h1.558v-16.91h-1.558v7.265h-.036c-.691-1.687-2.261-2.765-4.171-2.765-3.047 0-5.145 2.496-5.145 6.305v.011c0 3.809 2.086 6.317 5.156 6.317zm.293-1.383c-2.343 0-3.855-1.922-3.855-4.934v-.011c0-2.989 1.512-4.922 3.855-4.922 2.274 0 3.914 1.992 3.914 4.922v.011c0 2.942-1.617 4.934-3.914 4.934zm16.793 1.383c.375 0 .774-.047 1.02-.094v-1.266c-.176.024-.422.059-.703.059-1.137 0-1.711-.457-1.711-1.805v-8.004h2.414v-1.301h-2.414v-3.292h-1.594v3.292h-1.793v1.301h1.793v8.028c0 2.132.984 3.082 2.988 3.082zm3.293-.223h1.559v-7.184c0-2.261 1.406-3.832 3.515-3.832 2.075 0 3.34 1.36 3.34 3.762V262h1.559v-7.5c0-2.988-1.758-4.898-4.395-4.898-1.945 0-3.363.949-3.984 2.437h-.035v-6.949h-1.559V262zm17.508.223c2.637 0 4.582-1.512 5.004-3.598l.023-.117h-1.535l-.023.105c-.399 1.325-1.641 2.227-3.434 2.227-2.402 0-3.961-1.652-4.008-4.559h9.153v-.609c0-3.645-2.051-6.082-5.309-6.082s-5.414 2.519-5.414 6.34v.011c0 3.856 2.121 6.282 5.543 6.282zm-.141-11.25c2.086 0 3.586 1.418 3.762 4.078h-7.57c.187-2.59 1.734-4.078 3.808-4.078zm-160.664 40.25c1.922 0 3.446-1.078 4.149-2.754h.047V291h1.558v-16.91h-1.558v7.265h-.035c-.692-1.687-2.262-2.765-4.172-2.765-3.047 0-5.145 2.496-5.145 6.305v.011c0 3.809 2.086 6.317 5.156 6.317zm.293-1.383c-2.343 0-3.855-1.922-3.855-4.934v-.011c0-2.989 1.512-4.922 3.855-4.922 2.274 0 3.914 1.992 3.914 4.922v.011c0 2.942-1.617 4.934-3.914 4.934zm9.141-13.231c.562 0 1.019-.457 1.019-1.031 0-.574-.457-1.019-1.019-1.019-.574 0-1.031.445-1.031 1.019 0 .574.457 1.031 1.031 1.031zM240.676 291h1.558v-12.188h-1.558V291zm8.543.223c2.672 0 4.605-1.465 4.605-3.539v-.012c0-1.711-.926-2.66-3.351-3.246l-1.84-.434c-1.606-.387-2.262-1.008-2.262-1.98V282c0-1.242 1.102-2.098 2.754-2.098 1.699 0 2.777.926 2.977 2.344l.011.082h1.489l-.012-.129c-.199-2.097-1.863-3.609-4.465-3.609-2.543 0-4.336 1.441-4.336 3.469v.011c0 1.688 1.102 2.696 3.399 3.246l1.839.446c1.629.386 2.215.961 2.215 2.015v.012c0 1.277-1.172 2.121-3.012 2.121-1.839 0-2.976-.914-3.222-2.32l-.024-.106h-1.546l.011.106c.235 2.156 2.004 3.633 4.77 3.633zm11.625 0c2.66 0 4.617-1.676 4.98-3.95l.012-.093h-1.535l-.024.093c-.363 1.524-1.617 2.567-3.433 2.567-2.367 0-3.949-1.852-3.949-4.922v-.012c0-3.023 1.558-4.933 3.937-4.933 1.898 0 3.106 1.136 3.445 2.566l.024.094h1.523l-.012-.106c-.304-2.097-2.144-3.937-4.98-3.937-3.34 0-5.531 2.461-5.531 6.293v.012c0 3.878 2.156 6.328 5.543 6.328zm11.156-.012c1.969 0 3.328-.973 3.949-2.285h.035V291h1.559v-12.188h-1.559v7.219c0 2.274-1.406 3.797-3.539 3.797-2.062 0-3.187-1.207-3.187-3.469v-7.547h-1.559v7.805c0 2.86 1.606 4.594 4.301 4.594zm12.398.012c2.672 0 4.606-1.465 4.606-3.539v-.012c0-1.711-.926-2.66-3.352-3.246l-1.84-.434c-1.605-.387-2.261-1.008-2.261-1.98V282c0-1.242 1.101-2.098 2.754-2.098 1.699 0 2.777.926 2.976 2.344l.012.082h1.488l-.011-.129c-.2-2.097-1.864-3.609-4.465-3.609-2.543 0-4.336 1.441-4.336 3.469v.011c0 1.688 1.101 2.696 3.398 3.246l1.84.446c1.629.386 2.215.961 2.215 2.015v.012c0 1.277-1.172 2.121-3.012 2.121s-2.976-.914-3.222-2.32l-.024-.106h-1.547l.012.106c.234 2.156 2.004 3.633 4.769 3.633zm10.875 0c2.672 0 4.606-1.465 4.606-3.539v-.012c0-1.711-.926-2.66-3.352-3.246l-1.839-.434c-1.606-.387-2.262-1.008-2.262-1.98V282c0-1.242 1.101-2.098 2.754-2.098 1.699 0 2.777.926 2.976 2.344l.012.082h1.488l-.011-.129c-.2-2.097-1.864-3.609-4.465-3.609-2.543 0-4.336 1.441-4.336 3.469v.011c0 1.688 1.101 2.696 3.398 3.246l1.84.446c1.629.386 2.215.961 2.215 2.015v.012c0 1.277-1.172 2.121-3.012 2.121s-2.976-.914-3.223-2.32l-.023-.106h-1.547l.012.106c.234 2.156 2.004 3.633 4.769 3.633zm7.594-14.614c.563 0 1.02-.457 1.02-1.031 0-.574-.457-1.019-1.02-1.019-.574 0-1.031.445-1.031 1.019 0 .574.457 1.031 1.031 1.031zM302.082 291h1.559v-12.188h-1.559V291zm9.305.223c3.316 0 5.554-2.438 5.554-6.317v-.023c0-3.879-2.25-6.293-5.554-6.293-3.317 0-5.555 2.426-5.555 6.293v.023c0 3.867 2.227 6.305 5.555 6.317zm.011-1.383c-2.402-.012-3.972-1.84-3.972-4.934v-.023c0-3.071 1.582-4.91 3.961-4.91 2.379 0 3.972 1.828 3.972 4.91v.023c0 3.082-1.582 4.934-3.961 4.934zm7.606 1.16h1.547v-7.219c0-2.273 1.418-3.797 3.539-3.797 2.074 0 3.199 1.207 3.199 3.469V291h1.547v-7.805c0-2.859-1.594-4.593-4.289-4.593-1.969 0-3.34.972-3.949 2.285h-.047v-2.075h-1.547V291zm21.551.223c2.672 0 4.605-1.465 4.605-3.539v-.012c0-1.711-.926-2.66-3.351-3.246l-1.84-.434c-1.606-.387-2.262-1.008-2.262-1.98V282c0-1.242 1.102-2.098 2.754-2.098 1.699 0 2.777.926 2.977 2.344l.011.082h1.489l-.012-.129c-.199-2.097-1.864-3.609-4.465-3.609-2.543 0-4.336 1.441-4.336 3.469v.011c0 1.688 1.102 2.696 3.398 3.246l1.84.446c1.629.386 2.215.961 2.215 2.015v.012c0 1.277-1.172 2.121-3.012 2.121-1.839 0-2.976-.914-3.222-2.32l-.024-.106h-1.547l.012.106c.235 2.156 2.004 3.633 4.77 3.633zm11.625 0c2.636 0 4.582-1.512 5.004-3.598l.023-.117h-1.535l-.024.105c-.398 1.325-1.64 2.227-3.433 2.227-2.403 0-3.961-1.652-4.008-4.559h9.152v-.609c0-3.645-2.05-6.082-5.308-6.082s-5.414 2.519-5.414 6.34v.011c0 3.856 2.121 6.282 5.543 6.282zm-.141-11.25c2.086 0 3.586 1.418 3.762 4.078h-7.571c.188-2.59 1.735-4.078 3.809-4.078zM359.434 291h1.546v-7.617c0-1.957 1.102-3.305 2.836-3.305.528 0 .961.082 1.161.164v-1.512a3.44 3.44 0 00-.961-.14c-1.512 0-2.637.89-3.071 2.344h-.047v-2.122h-1.464V291zm8.121-14.391c.562 0 1.019-.457 1.019-1.031 0-.574-.457-1.019-1.019-1.019-.575 0-1.032.445-1.032 1.019 0 .574.457 1.031 1.032 1.031zM366.77 291h1.558v-12.188h-1.558V291zm9.292.223c2.637 0 4.583-1.512 5.004-3.598l.024-.117h-1.535l-.024.105c-.398 1.325-1.64 2.227-3.433 2.227-2.403 0-3.961-1.652-4.008-4.559h9.152v-.609c0-3.645-2.051-6.082-5.308-6.082-3.258 0-5.414 2.519-5.414 6.34v.011c0 3.856 2.121 6.282 5.542 6.282zm-.14-11.25c2.086 0 3.586 1.418 3.762 4.078h-7.571c.188-2.59 1.735-4.078 3.809-4.078zm11.578 11.25c2.672 0 4.605-1.465 4.605-3.539v-.012c0-1.711-.925-2.66-3.351-3.246l-1.84-.434c-1.605-.387-2.262-1.008-2.262-1.98V282c0-1.242 1.102-2.098 2.754-2.098 1.699 0 2.778.926 2.977 2.344l.012.082h1.488l-.012-.129c-.199-2.097-1.863-3.609-4.465-3.609-2.543 0-4.336 1.441-4.336 3.469v.011c0 1.688 1.102 2.696 3.399 3.246l1.84.446c1.629.386 2.214.961 2.214 2.015v.012c0 1.277-1.171 2.121-3.011 2.121s-2.977-.914-3.223-2.32l-.023-.106h-1.547l.011.106c.235 2.156 2.004 3.633 4.77 3.633zm-155.59 29c3.317 0 5.555-2.438 5.555-6.317v-.023c0-3.879-2.25-6.293-5.555-6.293-3.316 0-5.555 2.426-5.555 6.293v.023c0 3.867 2.227 6.305 5.555 6.317zm.012-1.383c-2.402-.012-3.973-1.84-3.973-4.934v-.023c0-3.071 1.582-4.91 3.961-4.91 2.379 0 3.973 1.828 3.973 4.91v.023c0 3.082-1.582 4.934-3.961 4.934zm7.605 1.16h1.547v-7.219c0-2.273 1.418-3.797 3.539-3.797 2.075 0 3.199 1.207 3.199 3.469V320h1.547v-7.805c0-2.859-1.593-4.593-4.289-4.593-1.968 0-3.34.972-3.949 2.285h-.047v-2.075h-1.547V320zm21.188 0h1.5l4.183-14.273h.036L270.617 320h1.5l4.653-16.91h-1.676l-3.739 14.519h-.035l-4.101-14.519h-1.606l-4.101 14.519h-.035l-3.739-14.519h-1.676l4.653 16.91zm17.941 0h1.559v-7.184c0-2.261 1.406-3.832 3.515-3.832 2.075 0 3.34 1.36 3.34 3.762V320h1.559v-7.5c0-2.988-1.758-4.898-4.395-4.898-1.945 0-3.363.949-3.984 2.437h-.035v-6.949h-1.559V320zm13.477-14.391c.562 0 1.019-.457 1.019-1.031 0-.574-.457-1.019-1.019-1.019-.574 0-1.031.445-1.031 1.019 0 .574.457 1.031 1.031 1.031zM291.348 320h1.558v-12.188h-1.558V320zm7.992.223c.375 0 .773-.047 1.019-.094v-1.266c-.175.024-.421.059-.703.059-1.136 0-1.711-.457-1.711-1.805v-8.004h2.414v-1.301h-2.414v-3.292h-1.593v3.292h-1.793v1.301h1.793v8.028c0 2.132.984 3.082 2.988 3.082zm7.699 0c2.637 0 4.582-1.512 5.004-3.598l.023-.117h-1.535l-.023.105c-.399 1.325-1.641 2.227-3.434 2.227-2.402 0-3.961-1.652-4.008-4.559h9.153v-.609c0-3.645-2.051-6.082-5.309-6.082s-5.414 2.519-5.414 6.34v.011c0 3.856 2.121 6.282 5.543 6.282zm-.141-11.25c2.086 0 3.586 1.418 3.762 4.078h-7.57c.187-2.59 1.734-4.078 3.808-4.078zM319.461 320h1.594v-7.676h7.781v-1.429h-7.781v-6.352h8.472v-1.453h-10.066V320zm12.199 0h1.547v-7.617c0-1.957 1.102-3.305 2.836-3.305.527 0 .961.082 1.16.164v-1.512a3.434 3.434 0 00-.961-.14c-1.512 0-2.637.89-3.07 2.344h-.047v-2.122h-1.465V320zm10.453.223c1.805 0 3.41-.996 4.078-2.45h.047V320h1.547v-8.344c0-2.496-1.746-4.066-4.535-4.066-2.754 0-4.488 1.5-4.723 3.598l-.011.14h1.5l.023-.117c.258-1.383 1.418-2.238 3.188-2.238 1.898 0 3.011 1.066 3.011 2.824v1.055l-3.797.234c-2.8.187-4.371 1.441-4.371 3.516v.023c0 2.156 1.641 3.598 4.043 3.598zm-2.461-3.598v-.023c0-1.336 1.067-2.168 2.977-2.286l3.609-.246v1.348c0 1.945-1.676 3.445-3.808 3.445-1.653 0-2.778-.902-2.778-2.238zm15.797 7.699c3.223 0 5.239-1.828 5.239-4.64v-11.872h-1.559v2.579h-.035c-.668-1.618-2.18-2.801-4.125-2.801-3.071 0-5.192 2.484-5.192 6.258v.011c0 3.797 2.098 6.282 5.168 6.282 1.957 0 3.504-1.137 4.149-2.731h.035v2.145c0 2.074-1.359 3.386-3.691 3.386-1.864 0-3.106-.726-3.516-1.711l-.047-.105h-1.559l.024.094c.433 1.722 2.215 3.105 5.109 3.105zm-.199-5.566c-2.355 0-3.879-1.922-3.879-4.899v-.011c0-2.942 1.524-4.875 3.879-4.875 2.285 0 3.879 1.957 3.879 4.875v.011c0 2.93-1.582 4.899-3.879 4.899zm9-13.149c.562 0 1.02-.457 1.02-1.031 0-.574-.458-1.019-1.02-1.019-.574 0-1.031.445-1.031 1.019 0 .574.457 1.031 1.031 1.031zM363.465 320h1.558v-12.188h-1.558V320zm4.465 0h1.547v-16.91h-1.547V320zm5.226-14.391c.563 0 1.02-.457 1.02-1.031 0-.574-.457-1.019-1.02-1.019-.574 0-1.031.445-1.031 1.019 0 .574.457 1.031 1.031 1.031zM372.371 320h1.559v-12.188h-1.559V320zm7.992.223c.375 0 .774-.047 1.02-.094v-1.266c-.176.024-.422.059-.703.059-1.137 0-1.711-.457-1.711-1.805v-8.004h2.414v-1.301h-2.414v-3.292h-1.594v3.292h-1.793v1.301h1.793v8.028c0 2.132.984 3.082 2.988 3.082zm4.02 3.879c2.086 0 3.082-.961 3.89-3.129l4.887-13.161h-1.64l-3.704 10.641h-.046l-3.692-10.641h-1.664l4.582 12.27-.293.785c-.539 1.488-1.254 1.934-2.625 1.934-.199 0-.398-.024-.551-.047v1.277c.223.035.551.071.856.071zM272.609 349h1.547v-10.887h2.614v-1.301h-2.625v-1.699c0-1.347.644-1.945 1.828-1.945.316 0 .621.023.879.07v-1.277a7.132 7.132 0 00-1.137-.094c-2.039 0-3.106 1.02-3.106 3.223v1.722h-1.699v1.301h1.699V349zm10.032.223c3.316 0 5.554-2.438 5.554-6.317v-.023c0-3.879-2.25-6.293-5.554-6.293-3.317 0-5.555 2.426-5.555 6.293v.023c0 3.867 2.226 6.305 5.555 6.317zm.011-1.383c-2.402-.012-3.972-1.84-3.972-4.934v-.023c0-3.071 1.582-4.91 3.961-4.91 2.379 0 3.972 1.828 3.972 4.91v.023c0 3.082-1.582 4.934-3.961 4.934zm7.606 1.16h1.547v-7.617c0-1.957 1.101-3.305 2.836-3.305.527 0 .961.082 1.16.164v-1.512a3.44 3.44 0 00-.961-.14c-1.512 0-2.637.89-3.07 2.344h-.047v-2.122h-1.465V349zm12.387 0h1.593v-6.926h4.5l3.891 6.926h1.875l-4.102-7.184c2.25-.586 3.621-2.378 3.621-4.757v-.024c0-3.012-2.109-4.945-5.414-4.945h-5.964V349zm1.593-8.344v-7.136h4.184c2.449 0 3.949 1.324 3.949 3.55v.024c0 2.25-1.441 3.562-3.891 3.562h-4.242zM316.637 349h1.5v-13.898h.082L324.078 349h1.395l5.871-13.898h.082V349h1.5v-16.91h-1.84l-6.27 14.894h-.07l-6.269-14.894h-1.84V349zm24.879.27c3.714 0 6.082-1.875 6.082-4.77v-.012c0-2.496-1.407-3.843-4.875-4.617l-1.852-.422c-2.449-.539-3.551-1.5-3.551-3.07v-.024c0-1.816 1.653-3.046 4.09-3.046 2.391 0 4.02 1.218 4.266 3.199l.012.152h1.605l-.012-.164c-.199-2.777-2.566-4.676-5.824-4.676-3.352 0-5.754 1.899-5.766 4.582v.012c0 2.402 1.477 3.82 4.758 4.559l1.852.41c2.601.586 3.656 1.512 3.656 3.176v.011c0 1.957-1.711 3.211-4.359 3.211-2.672 0-4.477-1.242-4.711-3.187l-.012-.164h-1.605l.011.164c.211 2.859 2.649 4.676 6.235 4.676zM537.67 404.328c5.701 0 9.242-3.924 9.242-10.185v-.028c0-6.248-3.555-10.172-9.242-10.172-5.674 0-9.242 3.911-9.242 10.172v.028c0 6.275 3.554 10.185 9.242 10.185zm0-2.707c-3.746 0-6.125-2.885-6.125-7.478v-.028c0-4.594 2.393-7.465 6.125-7.465 3.746 0 6.111 2.885 6.111 7.465v.028c0 4.552-2.324 7.478-6.111 7.478zM549.838 404h3.062v-6.74h4.28c3.869 0 6.549-2.639 6.549-6.494v-.028c0-3.869-2.68-6.467-6.549-6.467h-7.342V404zm6.576-17.145c2.666 0 4.197 1.436 4.197 3.897v.027c0 2.475-1.531 3.91-4.197 3.91H552.9v-7.834h3.514zM566.408 404h12.524v-2.639h-9.461v-6.125h8.955v-2.57h-8.955v-5.756h9.461v-2.639h-12.524V404zm15.668 0h3.035v-14.615h.082L595.352 404h2.816v-19.729h-3.035v14.588h-.082l-10.145-14.588h-2.83V404zm-144.949 38h1.982l2.188-6.043h8.299l2.187 6.043h1.969l-7.383-19.729h-1.859L437.127 442zm8.285-17.445h.055l3.541 9.789h-7.137l3.541-9.789zM455.748 442h1.805v-19.729h-1.805V442zm5.168 0h1.805v-19.729h-1.805V442zm6.016 4.785c2.433 0 3.595-1.121 4.539-3.65l5.701-15.354h-1.914l-4.32 12.414h-.055l-4.307-12.414h-1.941l5.345 14.315-.341.916c-.629 1.736-1.463 2.256-3.063 2.256a4.37 4.37 0 01-.642-.055v1.49c.259.041.642.082.998.082zM489.176 442h1.75l4.881-16.652h.041L500.729 442h1.75l5.427-19.729h-1.955l-4.361 16.94h-.041l-4.785-16.94h-1.873l-4.786 16.94h-.041l-4.361-16.94h-1.955L489.176 442zm25.156.26c3.869 0 6.48-2.844 6.48-7.369v-.028c0-4.525-2.624-7.342-6.48-7.342-3.869 0-6.48 2.831-6.48 7.342v.028c0 4.511 2.597 7.355 6.48 7.369zm.014-1.614c-2.803-.013-4.635-2.146-4.635-5.755v-.028c0-3.582 1.846-5.728 4.621-5.728 2.775 0 4.635 2.133 4.635 5.728v.028c0 3.595-1.846 5.755-4.621 5.755zm8.873 1.354h1.804v-8.887c0-2.283 1.286-3.855 3.309-3.855.615 0 1.121.096 1.354.191v-1.763a3.954 3.954 0 00-1.122-.165c-1.763 0-3.076 1.04-3.582 2.735h-.054v-2.475h-1.709V442zm8.599 0h1.805v-5.51l1.586-1.476 5.687 6.986h2.133l-6.521-8.094 6.385-6.125h-2.243l-6.972 6.699h-.055v-12.209h-1.805V442zm17.336.26c3.117 0 5.373-1.709 5.373-4.129v-.014c0-1.996-1.08-3.103-3.91-3.787l-2.146-.506c-1.873-.451-2.639-1.176-2.639-2.31v-.014c0-1.449 1.285-2.447 3.213-2.447 1.982 0 3.24 1.08 3.473 2.734l.013.096h1.737l-.014-.151c-.233-2.447-2.174-4.211-5.209-4.211-2.967 0-5.059 1.682-5.059 4.047v.014c0 1.969 1.285 3.145 3.965 3.787l2.147.52c1.9.451 2.584 1.121 2.584 2.351v.014c0 1.49-1.368 2.475-3.514 2.475-2.147 0-3.473-1.067-3.76-2.708l-.027-.123h-1.805l.014.123c.273 2.516 2.338 4.239 5.564 4.239zm7.93-.26h1.818v-8.381c0-2.639 1.641-4.471 4.102-4.471 2.42 0 3.896 1.586 3.896 4.389V442h1.819v-8.75c0-3.486-2.051-5.715-5.127-5.715-2.27 0-3.924 1.108-4.649 2.844h-.041v-8.108h-1.818V442zm20.439.26c3.87 0 6.481-2.844 6.481-7.369v-.028c0-4.525-2.625-7.342-6.481-7.342-3.869 0-6.48 2.831-6.48 7.342v.028c0 4.511 2.598 7.355 6.48 7.369zm.014-1.614c-2.803-.013-4.635-2.146-4.635-5.755v-.028c0-3.582 1.846-5.728 4.621-5.728 2.776 0 4.635 2.133 4.635 5.728v.028c0 3.595-1.846 5.755-4.621 5.755zm8.873 6.139h1.805v-7.752h.055c.779 1.901 2.584 3.227 4.853 3.227 3.568 0 6.002-2.899 6.002-7.356v-.013c0-4.444-2.42-7.37-6.029-7.37-2.284 0-4.034 1.34-4.826 3.268h-.055v-3.008h-1.805v19.004zm6.371-6.139c-2.666 0-4.566-2.31-4.566-5.742v-.013c0-3.446 1.887-5.756 4.566-5.756 2.735 0 4.498 2.242 4.498 5.756v.013c0 3.487-1.763 5.742-4.498 5.742zM493.072 474h1.86v-8.955h9.078v-1.668h-9.078v-7.41h9.884v-1.696h-11.744V474zm17.432.26c2.105 0 3.978-1.162 4.758-2.858h.054V474h1.805v-9.734c0-2.912-2.037-4.745-5.291-4.745-3.213 0-5.236 1.75-5.51 4.198l-.013.164h1.75l.027-.137c.301-1.613 1.654-2.611 3.719-2.611 2.215 0 3.513 1.244 3.513 3.295v1.23l-4.429.274c-3.268.218-5.1 1.681-5.1 4.101v.027c0 2.516 1.914 4.198 4.717 4.198zm-2.871-4.198v-.027c0-1.558 1.244-2.529 3.472-2.666l4.211-.287v1.572c0 2.27-1.955 4.02-4.443 4.02-1.928 0-3.24-1.053-3.24-2.612zm18.279 4.198c3.104 0 5.387-1.955 5.811-4.608l.013-.109h-1.791l-.027.109c-.424 1.778-1.887 2.994-4.006 2.994-2.762 0-4.607-2.16-4.607-5.742v-.013c0-3.528 1.818-5.756 4.593-5.756 2.215 0 3.623 1.326 4.02 2.994l.027.109h1.778l-.014-.123c-.355-2.447-2.502-4.594-5.811-4.594-3.896 0-6.453 2.872-6.453 7.342v.014c0 4.525 2.516 7.383 6.467 7.383zm9.133-17.049c.656 0 1.189-.533 1.189-1.203s-.533-1.19-1.189-1.19c-.67 0-1.203.52-1.203 1.19 0 .67.533 1.203 1.203 1.203zM534.129 474h1.818v-14.219h-1.818V474zm5.209 0h1.805v-19.729h-1.805V474zm6.098-16.789c.656 0 1.189-.533 1.189-1.203s-.533-1.19-1.189-1.19c-.67 0-1.204.52-1.204 1.19 0 .67.534 1.203 1.204 1.203zM544.52 474h1.818v-14.219h-1.818V474zm9.324.26c.437 0 .902-.055 1.189-.11v-1.476c-.205.027-.492.068-.82.068-1.326 0-1.996-.533-1.996-2.105v-9.338h2.816v-1.518h-2.816v-3.842h-1.86v3.842h-2.091v1.518h2.091v9.365c0 2.488 1.149 3.596 3.487 3.596zm7.519 0c2.106 0 3.979-1.162 4.758-2.858h.055V474h1.804v-9.734c0-2.912-2.037-4.745-5.291-4.745-3.212 0-5.236 1.75-5.509 4.198l-.014.164h1.75l.027-.137c.301-1.613 1.655-2.611 3.719-2.611 2.215 0 3.514 1.244 3.514 3.295v1.23l-4.43.274c-3.267.218-5.1 1.681-5.1 4.101v.027c0 2.516 1.915 4.198 4.717 4.198zm-2.871-4.198v-.027c0-1.558 1.244-2.529 3.473-2.666l4.211-.287v1.572c0 2.27-1.955 4.02-4.444 4.02-1.927 0-3.24-1.053-3.24-2.612zm16.762 4.198c.437 0 .902-.055 1.189-.11v-1.476c-.205.027-.492.068-.82.068-1.326 0-1.996-.533-1.996-2.105v-9.338h2.816v-1.518h-2.816v-3.842h-1.859v3.842h-2.092v1.518h2.092v9.365c0 2.488 1.148 3.596 3.486 3.596zm8.996 0c3.869 0 6.48-2.844 6.48-7.369v-.028c0-4.525-2.625-7.342-6.48-7.342-3.869 0-6.48 2.831-6.48 7.342v.028c0 4.511 2.597 7.355 6.48 7.369zm.014-1.614c-2.803-.013-4.635-2.146-4.635-5.755v-.028c0-3.582 1.846-5.728 4.621-5.728 2.775 0 4.635 2.133 4.635 5.728v.028c0 3.595-1.846 5.755-4.621 5.755zm8.873 1.354h1.804v-8.887c0-2.283 1.286-3.855 3.309-3.855.615 0 1.121.096 1.354.191v-1.763a3.954 3.954 0 00-1.122-.165c-1.763 0-3.076 1.04-3.582 2.735h-.054v-2.475h-1.709V474zM21.818 404h3.063v-7.574h4.21l4.02 7.574h3.528l-4.416-8.039c2.365-.807 3.828-2.94 3.828-5.619v-.028c0-3.705-2.543-6.043-6.576-6.043h-7.657V404zm3.063-10.09v-7.068h4.21c2.352 0 3.802 1.312 3.802 3.5v.027c0 2.242-1.354 3.541-3.72 3.541h-4.292zM39.018 404h3.062v-19.729h-3.062V404zm15.189.328c5.346 0 8.504-3.185 8.504-8.531v-2.024H54.59v2.502h5.1v.329c-.042 2.994-2.256 5.017-5.456 5.017-3.76 0-6.111-2.871-6.111-7.588v-.013c0-4.622 2.283-7.37 6.057-7.37 2.57 0 4.361 1.327 5.195 3.61l.041.15h3.145l-.055-.246c-.82-3.555-3.719-6.221-8.34-6.221-5.605 0-9.16 3.869-9.16 10.09v.014c0 6.344 3.554 10.281 9.201 10.281zM75.494 404h2.94l4.252-14.875h.068L86.992 404h2.94l5.332-19.729h-3.186L88.4 399.734h-.068l-4.17-15.463h-2.898l-4.17 15.463h-.055l-3.678-15.463h-3.185L75.494 404zm22.203 0h3.063v-19.729h-3.063V404zm6.699 0h12.25v-2.639h-9.187v-17.09h-3.063V404zm21.602.328c4.676 0 7.52-2.283 7.52-5.879v-.013c0-3.049-1.75-4.704-5.825-5.565l-2.16-.451c-2.461-.533-3.582-1.436-3.582-2.912v-.014c0-1.723 1.559-2.885 4.006-2.898 2.338 0 3.924 1.107 4.197 2.939l.014.192h2.98l-.013-.233c-.205-3.308-3.022-5.551-7.137-5.551-4.17 0-7.137 2.311-7.15 5.674v.014c0 2.926 1.873 4.703 5.742 5.523l2.146.451c2.612.575 3.692 1.436 3.692 3.022v.014c0 1.845-1.668 3.035-4.307 3.035-2.639 0-4.457-1.135-4.73-2.953l-.028-.178h-2.98l.013.205c.247 3.473 3.172 5.578 7.602 5.578zM21.668 442h12.879v-1.668H24.266v-.068l5.277-5.496c3.5-3.61 4.484-5.223 4.484-7.342v-.028c0-3.062-2.556-5.441-6.07-5.441-3.555 0-6.33 2.434-6.385 5.729v.123h1.805l.014-.11c.054-2.31 1.968-4.101 4.607-4.101 2.406 0 4.156 1.654 4.17 3.882v.028c0 1.722-.697 2.912-3.527 5.851l-6.973 7.329V442zm22.45.314c4.456 0 7.136-3.91 7.136-10.158v-.041c0-6.234-2.68-10.158-7.137-10.158-4.457 0-7.123 3.91-7.123 10.158v.041c0 6.235 2.666 10.158 7.123 10.158zm0-1.64c-3.31 0-5.25-3.281-5.25-8.518v-.041c0-5.236 1.94-8.504 5.25-8.504 3.308 0 5.263 3.254 5.263 8.504v.041c0 5.223-1.955 8.518-5.264 8.518zM53.96 442H66.84v-1.668H56.559v-.068l5.277-5.496c3.5-3.61 4.484-5.223 4.484-7.342v-.028c0-3.062-2.556-5.441-6.07-5.441-3.555 0-6.33 2.434-6.385 5.729v.123h1.805l.014-.11c.054-2.31 1.968-4.101 4.607-4.101 2.406 0 4.156 1.654 4.17 3.882v.028c0 1.722-.697 2.912-3.527 5.851l-6.973 7.329V442zm22.45.314c4.456 0 7.136-3.91 7.136-10.158v-.041c0-6.234-2.68-10.158-7.137-10.158-4.457 0-7.123 3.91-7.123 10.158v.041c0 6.235 2.666 10.158 7.123 10.158zm0-1.64c-3.31 0-5.25-3.281-5.25-8.518v-.041c0-5.236 1.94-8.504 5.25-8.504 3.308 0 5.263 3.254 5.263 8.504v.041c0 5.223-1.955 8.518-5.264 8.518zM96.534 442h1.75l4.881-16.652h.041L108.088 442h1.75l5.428-19.729h-1.955l-4.362 16.94h-.041l-4.785-16.94h-1.873l-4.785 16.94h-.041l-4.362-16.94h-1.955L96.535 442zm21.178 0h1.859v-19.729h-1.859V442zm5.551 0h11.744v-1.695h-9.885v-18.034h-1.859V442zm20.713.314c4.334 0 7.095-2.187 7.095-5.564v-.014c0-2.912-1.64-4.484-5.687-5.386l-2.16-.493c-2.858-.628-4.143-1.75-4.143-3.582v-.027c0-2.119 1.928-3.555 4.772-3.555 2.789 0 4.689 1.422 4.976 3.733l.014.178h1.873l-.014-.192c-.232-3.24-2.994-5.455-6.795-5.455-3.91 0-6.713 2.215-6.726 5.346v.013c0 2.803 1.722 4.457 5.55 5.319l2.161.478c3.035.684 4.265 1.764 4.265 3.705v.014c0 2.283-1.996 3.746-5.086 3.746-3.117 0-5.222-1.449-5.496-3.719l-.014-.191h-1.873l.014.191c.246 3.336 3.09 5.455 7.274 5.455zM21.559 474h1.804v-8.736c0-2.434 1.504-4.116 3.596-4.116 1.941 0 3.254 1.34 3.254 3.377V474h1.818v-8.955c0-2.283 1.45-3.897 3.555-3.897 2.064 0 3.295 1.327 3.295 3.541V474h1.804v-9.721c0-2.884-1.818-4.744-4.607-4.744-2.16 0-3.787 1.244-4.47 3.008h-.042c-.533-1.805-2.037-3.008-4.115-3.008-1.996 0-3.445 1.121-4.033 2.694h-.055v-2.448H21.56V474zm27.931.26c3.076 0 5.346-1.764 5.838-4.198l.027-.136h-1.79l-.028.123c-.465 1.545-1.914 2.597-4.006 2.597-2.803 0-4.62-1.927-4.675-5.318h10.677v-.711c0-4.252-2.392-7.096-6.193-7.096-3.8 0-6.317 2.94-6.317 7.397v.014c0 4.498 2.475 7.328 6.467 7.328zm-.164-13.125c2.434 0 4.184 1.654 4.389 4.758h-8.832c.219-3.022 2.023-4.758 4.443-4.758zM57.953 474h1.805v-8.422c0-2.652 1.654-4.43 4.129-4.43 2.42 0 3.732 1.409 3.732 4.047V474h1.805v-9.105c0-3.336-1.86-5.36-5.004-5.36-2.297 0-3.897 1.135-4.608 2.666h-.054v-2.42h-1.805V474zm18.758.26c.437 0 .902-.055 1.19-.11v-1.476c-.206.027-.493.068-.82.068-1.327 0-1.997-.533-1.997-2.105v-9.338H77.9v-1.518h-2.816v-3.842h-1.86v3.842h-2.091v1.518h2.092v9.365c0 2.488 1.148 3.596 3.486 3.596zm8.996 0c3.87 0 6.48-2.844 6.48-7.369v-.028c0-4.525-2.624-7.342-6.48-7.342-3.87 0-6.48 2.831-6.48 7.342v.028c0 4.511 2.597 7.355 6.48 7.369zm.014-1.614c-2.803-.013-4.635-2.146-4.635-5.755v-.028c0-3.582 1.846-5.728 4.621-5.728 2.775 0 4.635 2.133 4.635 5.728v.028c0 3.595-1.846 5.755-4.621 5.755zM94.594 474h1.804v-8.887c0-2.283 1.286-3.855 3.309-3.855.615 0 1.121.096 1.354.191v-1.763a3.953 3.953 0 00-1.122-.165c-1.763 0-3.076 1.04-3.582 2.735h-.054v-2.475h-1.71V474zm14.164 4.785h1.804v-7.752h.055c.779 1.901 2.584 3.227 4.854 3.227 3.568 0 6.002-2.899 6.002-7.356v-.013c0-4.444-2.42-7.37-6.03-7.37-2.283 0-4.033 1.34-4.826 3.268h-.055v-3.008h-1.804v19.004zm6.371-6.139c-2.666 0-4.567-2.31-4.567-5.742v-.013c0-3.446 1.887-5.756 4.567-5.756 2.734 0 4.498 2.242 4.498 5.756v.013c0 3.487-1.764 5.742-4.498 5.742zm8.777 1.354h1.805v-8.887c0-2.283 1.285-3.855 3.309-3.855.615 0 1.121.096 1.353.191v-1.763a3.952 3.952 0 00-1.121-.165c-1.764 0-3.076 1.04-3.582 2.735h-.055v-2.475h-1.709V474zm13.371.26c3.869 0 6.481-2.844 6.481-7.369v-.028c0-4.525-2.625-7.342-6.481-7.342-3.869 0-6.48 2.831-6.48 7.342v.028c0 4.511 2.598 7.355 6.48 7.369zm.014-1.614c-2.803-.013-4.635-2.146-4.635-5.755v-.028c0-3.582 1.846-5.728 4.621-5.728 2.776 0 4.635 2.133 4.635 5.728v.028c0 3.595-1.846 5.755-4.621 5.755zm14.779 6.399c3.76 0 6.112-2.133 6.112-5.414v-13.85h-1.819v3.008h-.041c-.779-1.887-2.543-3.268-4.812-3.268-3.582 0-6.057 2.899-6.057 7.301v.014c0 4.43 2.447 7.328 6.029 7.328 2.284 0 4.088-1.326 4.84-3.185h.041v2.501c0 2.42-1.586 3.952-4.306 3.952-2.174 0-3.623-.848-4.102-1.996l-.055-.124h-1.818l.027.11c.506 2.01 2.584 3.623 5.961 3.623zm-.232-6.494c-2.748 0-4.526-2.242-4.526-5.715v-.014c0-3.431 1.778-5.687 4.526-5.687 2.666 0 4.525 2.283 4.525 5.687v.014c0 3.418-1.845 5.715-4.525 5.715zm9.447 1.449h1.805v-8.887c0-2.283 1.285-3.855 3.308-3.855.616 0 1.122.096 1.354.191v-1.763a3.952 3.952 0 00-1.121-.165c-1.764 0-3.076 1.04-3.582 2.735h-.055v-2.475h-1.709V474zm12.195.26c2.106 0 3.979-1.162 4.758-2.858h.055V474h1.805v-9.734c0-2.912-2.037-4.745-5.291-4.745-3.213 0-5.237 1.75-5.51 4.198l-.014.164h1.75l.028-.137c.3-1.613 1.654-2.611 3.718-2.611 2.215 0 3.514 1.244 3.514 3.295v1.23l-4.43.274c-3.267.218-5.099 1.681-5.099 4.101v.027c0 2.516 1.914 4.198 4.716 4.198zm-2.871-4.198v-.027c0-1.558 1.245-2.529 3.473-2.666l4.211-.287v1.572c0 2.27-1.955 4.02-4.443 4.02-1.928 0-3.241-1.053-3.241-2.612zM183.133 474h1.805v-8.736c0-2.434 1.503-4.116 3.595-4.116 1.942 0 3.254 1.34 3.254 3.377V474h1.818v-8.955c0-2.283 1.45-3.897 3.555-3.897 2.065 0 3.295 1.327 3.295 3.541V474h1.805v-9.721c0-2.884-1.819-4.744-4.608-4.744-2.16 0-3.787 1.244-4.47 3.008h-.041c-.534-1.805-2.037-3.008-4.116-3.008-1.996 0-3.445 1.121-4.033 2.694h-.054v-2.448h-1.805V474zM473.467 46h3.062v-7.574h4.211L484.76 46h3.527l-4.416-8.04c2.365-.806 3.828-2.938 3.828-5.618v-.027c0-3.706-2.543-6.043-6.576-6.043h-7.656V46zm3.062-10.09v-7.068h4.211c2.352 0 3.801 1.312 3.801 3.5v.027c0 2.242-1.353 3.541-3.719 3.541h-4.293zM490.666 46h2.789V31.44h.096L499.498 46h2.27l5.947-14.56h.096V46h2.789V26.271h-3.528l-6.398 15.75h-.082l-6.385-15.75h-3.541V46zm30.297.328c4.676 0 7.519-2.283 7.519-5.879v-.014c0-3.048-1.75-4.703-5.824-5.564l-2.16-.451c-2.461-.533-3.582-1.436-3.582-2.912v-.014c0-1.723 1.559-2.885 4.006-2.898 2.338 0 3.924 1.107 4.197 2.94l.014.19h2.98l-.013-.232c-.205-3.308-3.022-5.55-7.137-5.55-4.17 0-7.137 2.31-7.151 5.673v.014c0 2.926 1.874 4.703 5.743 5.523l2.146.451c2.611.575 3.692 1.436 3.692 3.022v.014c0 1.845-1.668 3.035-4.307 3.035-2.639 0-4.457-1.135-4.731-2.953l-.027-.178h-2.98l.013.205c.246 3.473 3.172 5.578 7.602 5.578zm20.07-.328h2.94l4.252-14.875h.068L552.531 46h2.94l5.332-19.729h-3.186l-3.678 15.463h-.068l-4.17-15.463h-2.898l-4.17 15.463h-.055L538.9 26.271h-3.185L541.033 46zm22.203 0h3.063V26.271h-3.063V46zm6.7 0h12.25v-2.639h-9.188v-17.09h-3.062V46zm21.601.328c4.676 0 7.52-2.283 7.52-5.879v-.014c0-3.048-1.75-4.703-5.825-5.564l-2.16-.451c-2.461-.533-3.582-1.436-3.582-2.912v-.014c0-1.723 1.559-2.885 4.006-2.898 2.338 0 3.924 1.107 4.197 2.94l.014.19h2.981l-.014-.232c-.205-3.308-3.022-5.55-7.137-5.55-4.17 0-7.137 2.31-7.15 5.673v.014c0 2.926 1.873 4.703 5.742 5.523l2.146.451c2.612.575 3.692 1.436 3.692 3.022v.014c0 1.845-1.668 3.035-4.307 3.035-2.639 0-4.457-1.135-4.73-2.953l-.028-.178h-2.98l.014.205c.246 3.473 3.171 5.578 7.601 5.578zM467.014 78h12.25v-2.639h-9.188v-17.09h-3.062V78zm20.302.287c3.487 0 5.702-2.078 6.166-4.361l.028-.15h-2.803l-.041.109c-.369 1.08-1.531 1.982-3.281 1.982-2.352 0-3.842-1.586-3.897-4.306h10.186v-.999c0-4.32-2.475-7.218-6.508-7.218-4.033 0-6.631 3.008-6.631 7.506v.013c0 4.54 2.557 7.424 6.781 7.424zm-.136-12.523c1.927 0 3.322 1.217 3.568 3.705h-7.219c.26-2.406 1.737-3.705 3.651-3.705zm13.015 12.496c1.901 0 3.569-.985 4.403-2.53h.054V78h2.967v-9.912c0-2.885-2.228-4.744-5.742-4.744-3.541 0-5.688 1.9-5.893 4.375l-.013.15h2.789l.027-.123c.246-1.148 1.299-1.955 3.008-1.955 1.832 0 2.857.957 2.857 2.543v1.08l-3.91.233c-3.404.205-5.346 1.736-5.346 4.238v.027c0 2.584 1.928 4.348 4.799 4.348zm-1.818-4.416v-.028c0-1.216.984-1.996 2.762-2.105l3.513-.219v1.121c0 1.873-1.572 3.281-3.65 3.281-1.586 0-2.625-.792-2.625-2.05zm17.486 4.443c2.065 0 3.651-1.039 4.512-2.72h.055V78h2.966V58.272h-2.966v7.792h-.055c-.861-1.695-2.502-2.72-4.539-2.72-3.609 0-5.988 2.87-5.988 7.45v.015c0 4.58 2.351 7.478 6.015 7.478zm.78-2.543c-2.338 0-3.774-1.873-3.774-4.935v-.014c0-3.035 1.449-4.922 3.774-4.922 2.214 0 3.8 1.941 3.8 4.922v.014c0 2.994-1.572 4.935-3.8 4.935zm15.927 2.543c3.487 0 5.701-2.078 6.166-4.361l.028-.15h-2.803l-.041.109c-.369 1.08-1.531 1.982-3.281 1.982-2.352 0-3.842-1.586-3.897-4.306h10.186v-.999c0-4.32-2.475-7.218-6.508-7.218-4.033 0-6.631 3.008-6.631 7.506v.013c0 4.54 2.557 7.424 6.781 7.424zm-.136-12.523c1.927 0 3.322 1.217 3.568 3.705h-7.219c.26-2.406 1.737-3.705 3.651-3.705zM541.225 78h2.953v-8.654c0-2.037 1.176-3.309 3.076-3.309.574 0 1.094.069 1.326.164v-2.748c-.232-.04-.601-.11-1.025-.11-1.696 0-2.981 1.013-3.418 2.653h-.069v-2.379h-2.843V78zm14.574.287c3.39 0 5.851-1.805 5.851-4.43v-.013c0-2.065-1.121-3.227-4.06-3.91l-2.338-.534c-1.545-.369-2.133-.97-2.133-1.859v-.014c0-1.148.998-1.9 2.584-1.9 1.668 0 2.652.875 2.83 2.133l.014.096h2.775l-.013-.165c-.151-2.447-2.202-4.347-5.606-4.347-3.308 0-5.551 1.763-5.551 4.334v.013c0 2.092 1.354 3.405 4.088 4.034l2.352.533c1.545.369 2.064.902 2.064 1.832v.013c0 1.163-1.066 1.9-2.844 1.9-1.818 0-2.802-.778-3.076-2.105l-.027-.136h-2.926l.014.123c.301 2.625 2.406 4.402 6.002 4.402zm8.258-.287h2.953v-8.326c0-2.242 1.353-3.801 3.39-3.801 2.079 0 3.282 1.422 3.282 3.8V78h2.953v-8.887c0-3.472-2.024-5.77-5.1-5.77-2.146 0-3.691.971-4.457 2.64h-.068V58.27h-2.953V78zm17.048-16.598a1.701 1.701 0 100-3.404c-.957 0-1.722.766-1.722 1.709 0 .93.765 1.695 1.722 1.695zM579.629 78h2.953V63.617h-2.953V78zm6.002 4.785h2.953V75.58h.068c.848 1.668 2.502 2.707 4.539 2.707 3.61 0 5.975-2.885 5.975-7.465v-.013c0-4.594-2.352-7.465-6.016-7.465-2.05 0-3.636 1.039-4.498 2.748h-.068v-2.475h-2.953v19.168zm6.754-7.04c-2.229 0-3.815-1.942-3.815-4.923v-.013c0-2.995 1.573-4.936 3.815-4.936 2.31 0 3.773 1.873 3.773 4.936v.013c0 3.035-1.449 4.922-3.773 4.922zM450.361 116h1.86v-8.08h5.25l4.539 8.08h2.187l-4.785-8.381c2.625-.683 4.225-2.775 4.225-5.551v-.027c0-3.514-2.461-5.77-6.317-5.77h-6.959V116zm1.86-9.734v-8.327h4.881c2.857 0 4.607 1.545 4.607 4.143v.027c0 2.625-1.682 4.157-4.539 4.157h-4.949zm19.66 9.994c3.076 0 5.346-1.764 5.838-4.198l.027-.136h-1.791l-.027.123c-.465 1.545-1.914 2.597-4.006 2.597-2.803 0-4.621-1.927-4.676-5.318h10.678v-.711c0-4.252-2.393-7.096-6.194-7.096-3.8 0-6.316 2.94-6.316 7.397v.014c0 4.498 2.475 7.328 6.467 7.328zm-.164-13.125c2.433 0 4.183 1.654 4.388 4.758h-8.832c.219-3.022 2.024-4.758 4.444-4.758zm8.627 17.65h1.804v-7.752h.055c.779 1.901 2.584 3.227 4.854 3.227 3.568 0 6.002-2.899 6.002-7.356v-.013c0-4.444-2.42-7.37-6.03-7.37-2.283 0-4.033 1.34-4.826 3.268h-.055v-3.008h-1.804v19.004zm6.371-6.139c-2.666 0-4.567-2.31-4.567-5.742v-.013c0-3.446 1.887-5.756 4.567-5.756 2.734 0 4.498 2.242 4.498 5.756v.013c0 3.487-1.764 5.742-4.498 5.742zm8.777 1.354h1.805v-8.887c0-2.283 1.285-3.855 3.308-3.855.616 0 1.122.096 1.354.191v-1.763a3.952 3.952 0 00-1.121-.165c-1.764 0-3.076 1.04-3.582 2.735h-.055v-2.475h-1.709V116zm13.358.26c3.076 0 5.345-1.764 5.838-4.198l.027-.136h-1.791l-.028.123c-.464 1.545-1.914 2.597-4.005 2.597-2.803 0-4.621-1.927-4.676-5.318h10.678v-.711c0-4.252-2.393-7.096-6.194-7.096s-6.316 2.94-6.316 7.397v.014c0 4.498 2.474 7.328 6.467 7.328zm-.164-13.125c2.433 0 4.183 1.654 4.388 4.758h-8.832c.219-3.022 2.024-4.758 4.444-4.758zm13.507 13.125c3.118 0 5.373-1.709 5.373-4.129v-.014c0-1.996-1.08-3.103-3.91-3.787l-2.146-.506c-1.873-.451-2.639-1.176-2.639-2.31v-.014c0-1.449 1.285-2.447 3.213-2.447 1.982 0 3.24 1.08 3.473 2.734l.013.096h1.737l-.014-.151c-.232-2.447-2.174-4.211-5.209-4.211-2.967 0-5.059 1.682-5.059 4.047v.014c0 1.969 1.286 3.145 3.965 3.787l2.147.52c1.9.451 2.584 1.121 2.584 2.351v.014c0 1.49-1.367 2.475-3.514 2.475-2.146 0-3.473-1.067-3.76-2.708l-.027-.123h-1.805l.014.123c.273 2.516 2.338 4.239 5.564 4.239zm13.563 0c3.076 0 5.346-1.764 5.838-4.198l.027-.136h-1.791l-.027.123c-.465 1.545-1.914 2.597-4.006 2.597-2.803 0-4.621-1.927-4.676-5.318h10.678v-.711c0-4.252-2.393-7.096-6.194-7.096-3.8 0-6.316 2.94-6.316 7.397v.014c0 4.498 2.475 7.328 6.467 7.328zm-.164-13.125c2.433 0 4.183 1.654 4.388 4.758h-8.832c.219-3.022 2.024-4.758 4.444-4.758zM544.219 116h1.804v-8.422c0-2.652 1.655-4.43 4.129-4.43 2.42 0 3.733 1.409 3.733 4.047V116h1.804v-9.105c0-3.336-1.859-5.36-5.003-5.36-2.297 0-3.897 1.135-4.608 2.666h-.055v-2.42h-1.804V116zm18.758.26c.437 0 .902-.055 1.189-.11v-1.476c-.205.027-.492.068-.82.068-1.326 0-1.996-.533-1.996-2.105v-9.338h2.816v-1.518h-2.816v-3.842h-1.86v3.842h-2.092v1.518h2.092v9.365c0 2.488 1.149 3.596 3.487 3.596zm4.771-17.05c.656 0 1.19-.532 1.19-1.202 0-.67-.534-1.19-1.19-1.19-.67 0-1.203.52-1.203 1.19 0 .67.533 1.203 1.203 1.203zm-.916 16.79h1.818v-14.219h-1.818V116zm5.086 0h1.805v-8.422c0-2.652 1.654-4.43 4.129-4.43 2.419 0 3.732 1.409 3.732 4.047V116h1.805v-9.105c0-3.336-1.86-5.36-5.004-5.36-2.297 0-3.897 1.135-4.608 2.666h-.054v-2.42h-1.805V116zm20.426 5.045c3.76 0 6.111-2.133 6.111-5.414v-13.85h-1.818v3.008h-.041c-.78-1.887-2.543-3.268-4.813-3.268-3.582 0-6.056 2.899-6.056 7.301v.014c0 4.43 2.447 7.328 6.029 7.328 2.283 0 4.088-1.326 4.84-3.185h.041v2.501c0 2.42-1.586 3.952-4.307 3.952-2.174 0-3.623-.848-4.101-1.996l-.055-.124h-1.819l.028.11c.506 2.01 2.584 3.623 5.961 3.623zm-.233-6.494c-2.748 0-4.525-2.242-4.525-5.715v-.014c0-3.431 1.777-5.687 4.525-5.687 2.666 0 4.526 2.283 4.526 5.687v.014c0 3.418-1.846 5.715-4.526 5.715zm-50.859 33.763c4.102 0 7.109-2.488 7.848-6.207l.027-.136h-1.873l-.041.123c-.82 2.802-2.899 4.484-5.961 4.484-4.238 0-7-3.336-7-8.449v-.014c0-5.127 2.734-8.422 7-8.422 3.076 0 5.168 1.696 5.92 4.362l.082.246h1.873l-.027-.137c-.739-3.691-3.76-6.207-7.848-6.207-5.441 0-8.914 3.965-8.914 10.158v.014c0 6.18 3.5 10.185 8.914 10.185zm16.967 0c4.334 0 7.095-2.187 7.095-5.564v-.014c0-2.912-1.64-4.484-5.687-5.386l-2.16-.493c-2.858-.628-4.143-1.75-4.143-3.582v-.027c0-2.119 1.928-3.555 4.772-3.555 2.789 0 4.689 1.422 4.976 3.733l.014.178h1.873l-.014-.192c-.232-3.24-2.994-5.455-6.795-5.455-3.91 0-6.712 2.215-6.726 5.346v.013c0 2.803 1.722 4.457 5.551 5.319l2.16.478c3.035.684 4.265 1.764 4.265 3.705v.014c0 2.283-1.996 3.746-5.086 3.746-3.117 0-5.222-1.449-5.496-3.719l-.013-.191h-1.873l.013.191c.246 3.336 3.09 5.455 7.274 5.455zm17.869 0c5.113 0 8.217-3.281 8.217-8.572v-1.654h-7.985v1.641h6.125v.437c0 3.814-2.543 6.412-6.357 6.412-4.238 0-6.932-3.295-6.932-8.558v-.014c0-5.154 2.653-8.313 6.932-8.313 2.994 0 5.168 1.559 6.098 4.471l.054.137h1.942l-.055-.219c-.916-3.678-3.719-6.125-8.039-6.125-5.373 0-8.832 3.897-8.832 10.049v.014c0 6.275 3.473 10.294 8.832 10.294zm11.238-.314h1.86v-8.955h9.078v-1.668h-9.078v-7.41h9.884v-1.696h-11.744V148z" fill="#000"/></svg>